<?xml version="1.0" encoding="UTF-8" standalone="no"?>
<svg
   xmlns:dc="http://purl.org/dc/elements/1.1/"
   xmlns:cc="http://creativecommons.org/ns#"
   xmlns:rdf="http://www.w3.org/1999/02/22-rdf-syntax-ns#"
   xmlns:svg="http://www.w3.org/2000/svg"
   xmlns="http://www.w3.org/2000/svg"
   xml:space="preserve"
   style="enable-background:new 0 0 59 59;"
   viewBox="0 0 59 59"
   y="0px"
   x="0px"
   id="Capa_1"
   version="1.1"><metadata
   id="metadata45"><rdf:RDF><cc:Work
       rdf:about=""><dc:format>image/svg+xml</dc:format><dc:type
         rdf:resource="http://purl.org/dc/dcmitype/StillImage" /><dc:title></dc:title></cc:Work></rdf:RDF></metadata><defs
   id="defs43">
	
	
	
</defs>
<path
   style="fill:#cb4f24;fill-opacity:1"
   d="m 57.485,57.293 -6.798,-6.798 6.483,-3.241 -17.637,-6.498 6.498,17.638 3.242,-6.484 6.797,6.797 c 0.197,0.195 0.452,0.293 0.708,0.293 0.256,0 0.512,-0.098 0.707,-0.293 0.391,-0.391 0.391,-1.023 0,-1.414 z m -14.576,-13.162 9.232,3.402 -3.887,1.943 -1.943,3.888 z"
   id="path2" /><path
   style="fill:#cb4f24;fill-opacity:1"
   d="m 46.222,21 h -9 -2 -7 -2 -7 -2 -9 v 9 2 7 2 9 h 9 2 9 v -9 h 9 v -9 h 9 z m -18,2 h 7 v 7 h -7 z m -9,0 h 7 v 7 h -7 z m 7,16 h -7 v -7 h 7 z m -16,-16 h 7 v 7 h -7 z m 0,9 h 7 v 7 h -7 z m 7,16 h -7 v -7 h 7 z m 9,0 h -7 v -7 h 7 z m 9,-9 h -7 v -7 h 7 z m 9,-9 h -7 v -7 h 7 z"
   id="path4" /><path
   style="fill:#00384e;fill-opacity:1"
   d="m 34.222,55 h -31 V 16 h 48 v 20 c 0,0.553 0.447,1 1,1 0.553,0 1,-0.447 1,-1 V 15 5 c 0,-0.553 -0.447,-1 -1,-1 h -5 V 1 c 0,-0.553 -0.447,-1 -1,-1 h -7 c -0.553,0 -1,0.447 -1,1 v 3 h -22 V 1 c 0,-0.553 -0.447,-1 -1,-1 h -7 c -0.553,0 -1,0.447 -1,1 v 3 h -5 c -0.553,0 -1,0.447 -1,1 v 10 41 c 0,0.553 0.447,1 1,1 h 32 c 0.553,0 1,-0.447 1,-1 0,-0.553 -0.448,-1 -1,-1 z m 6,-53 h 5 v 3 3 h -5 V 5 Z m -31,0 h 5 v 3 3 h -5 V 5 Z m -6,4 h 4 v 3 c 0,0.553 0.447,1 1,1 h 7 c 0.553,0 1,-0.447 1,-1 V 6 h 22 v 3 c 0,0.553 0.447,1 1,1 h 7 c 0.553,0 1,-0.447 1,-1 V 6 h 4 v 8 h -48 z"
   id="path6" />
<g
   id="g10">
</g>
<g
   id="g12">
</g>
<g
   id="g14">
</g>
<g
   id="g16">
</g>
<g
   id="g18">
</g>
<g
   id="g20">
</g>
<g
   id="g22">
</g>
<g
   id="g24">
</g>
<g
   id="g26">
</g>
<g
   id="g28">
</g>
<g
   id="g30">
</g>
<g
   id="g32">
</g>
<g
   id="g34">
</g>
<g
   id="g36">
</g>
<g
   id="g38">
</g>
</svg>